<?xml version="1.0" encoding="utf-8"?>
<!-- Generator: Adobe Illustrator 22.1.0, SVG Export Plug-In . SVG Version: 6.00 Build 0)  -->
<svg version="1.1"
	 id="logosvg.com" inkscape:version="0.91 r13725" sodipodi:docname="booking.com.svg" xmlns:cc="http://creativecommons.org/ns#" xmlns:dc="http://purl.org/dc/elements/1.1/" xmlns:inkscape="http://www.inkscape.org/namespaces/inkscape" xmlns:rdf="http://www.w3.org/1999/02/22-rdf-syntax-ns#" xmlns:sodipodi="http://sodipodi.sourceforge.net/DTD/sodipodi-0.dtd" xmlns:svg="http://www.w3.org/2000/svg"
	 xmlns="http://www.w3.org/2000/svg" xmlns:xlink="http://www.w3.org/1999/xlink" x="0px" y="0px" viewBox="0 0 400 300"
	 style="enable-background:new 0 0 400 300;" xml:space="preserve">
<style type="text/css">
	.st0{fill:#273B7D;}
	.st1{fill:#499FDD;}
</style>
<path id="logo_2_" class="st0" d="M170.5,124.5c0,3.2-2.6,5.8-5.8,5.8c-3.2,0-5.8-2.6-5.8-5.8c0-3.2,2.6-5.8,5.8-5.8
	C167.9,118.7,170.5,121.3,170.5,124.5z M82.1,151.1c0,10.5-7.7,18.1-18.3,18.1c-10.6,0-18.2-7.6-18.2-18.1
	c0-10.5,7.7-18.1,18.2-18.1C74.4,133,82.1,140.6,82.1,151.1z M72.3,151.1c0-5.7-3.5-9.6-8.5-9.6c-5,0-8.5,4-8.5,9.6
	c0,5.7,3.5,9.6,8.5,9.6C68.9,160.7,72.3,156.8,72.3,151.1z M147.7,152L147.7,152c-0.4-0.8-0.9-1.4-1.4-1.9l-0.3-0.3l0.3-0.3
	c0.5-0.5,1-1.1,1.5-1.8l9.3-13.9h-11.3l-7,10.8c-0.4,0.6-1.2,0.9-2.4,0.9h-1.6v-20.5c0-4.1-2.6-4.7-5.3-4.7h-4.7l0,48.4h10v-14.5
	h0.9c1.1,0,1.9,0.1,2.3,0.8l5.5,10.4c1.5,2.8,3.1,3.3,6,3.3h7.7l-5.7-9.5L147.7,152z M196.3,132.9L196.3,132.9
	c-5.1,0-8.4,2.3-10.2,4.2l-0.6,0.6l-0.2-0.8c-0.5-2.1-2.3-3.2-5.1-3.2h-4.5l0,34.9h10v-16.1c0-1.6,0.2-2.9,0.6-4.2
	c1.1-3.8,4.2-6.1,8.1-6.1c3.1,0,4.3,1.6,4.3,5.9v15.2c0,3.6,1.7,5.3,5.3,5.3h4.7l0-22.2C208.8,137.6,204.5,132.9,196.3,132.9z
	 M164.8,133.7L164.8,133.7l-4.7,0l0,27h0v7.9h5c0.1,0,0.1,0,0.2,0l2.3,0h2.3v0h0l0-29.6C170,135.4,168.3,133.7,164.8,133.7z
	 M121.2,151.1c0,10.5-7.7,18.1-18.3,18.1c-10.6,0-18.2-7.6-18.2-18.1c0-10.5,7.7-18.1,18.2-18.1C113.5,133,121.2,140.6,121.2,151.1z
	 M111.4,151.1c0-5.7-3.5-9.6-8.5-9.6c-5,0-8.5,4-8.5,9.6c0,5.7,3.5,9.6,8.5,9.6C108,160.7,111.4,156.8,111.4,151.1z M246.4,133.6
	l0,32c0,12.2-9.9,16.6-18.4,16.6c-4.1,0-8.7-1.1-12.2-3l-0.7-0.4l1.1-2.9l0.8-2c0.9-2.1,2.1-2.6,4.2-2c1.6,0.6,4,1.2,6.7,1.2
	c5.5,0,8.5-2.6,8.5-7.2v-1l-0.8,0.6c-2,1.5-4.5,2.2-7.7,2.2c-9.3,0-15.8-7.3-15.8-17.7c0-10.4,6.3-17.4,15.6-17.4
	c4.7,0,7.6,1.6,9.2,3l0.5,0.4l0.3-0.5c0.7-1.4,2.2-2.1,4.1-2.1h0H246.4z M236.6,150.3c0-7.8-4.2-8.7-7.4-8.7c-6.4,0-6.9,6.4-6.9,8.4
	c0,4.4,1.9,9.2,7.4,9.2C232.9,159.1,236.6,157.6,236.6,150.3z M42.7,154.4c0,8.6-6.5,14.1-16.7,14.1l-11.9,0c0,0,0,0,0,0H9.3v-43.1
	c0-2.7,2.2-4.9,4.9-5h1.2v0h10.4c9.1,0,15,4.9,15,12.5c0,5-2.5,7.8-4,9.1l-1.3,1.1l1.5,0.8h0C40.6,145.8,42.7,149.7,42.7,154.4z
	 M18.6,134.1L18.6,134.1l0,5.6h7.3c4.1,0,5.6-3.2,5.6-5.9c0-3.6-2.1-5.7-5.7-5.7h-4.1c-2.1,0.1-3,1.2-3,3.4V134.1z M33.2,153.7
	c0-4-2.6-6.5-6.5-6.5h-5.5c-1.8,0.2-2.6,1.3-2.6,3.4v9.7l8.1,0v0C30.7,160.3,33.2,157.8,33.2,153.7z"/>
<path id="logo_1_" class="st1" d="M261.9,163.2c0,3.2-2.6,5.8-5.8,5.8c-3.2,0-5.8-2.6-5.8-5.8c0-3.2,2.6-5.8,5.8-5.8
	C259.3,157.4,261.9,160,261.9,163.2z M334.6,151.1c0,10.5-7.7,18.1-18.3,18.1c-10.6,0-18.2-7.6-18.2-18.1c0-10.5,7.7-18.1,18.2-18.1
	C326.9,133,334.6,140.6,334.6,151.1z M324.8,151.1c0-5.7-3.5-9.6-8.5-9.6c-5,0-8.5,4-8.5,9.6c0,5.7,3.5,9.6,8.5,9.6
	C321.4,160.7,324.8,156.8,324.8,151.1z M379,133C379,133,379,133,379,133C379,133,379,133,379,133L379,133z M379,133
	c-4.1,0-8.1,1.9-10.7,5.2l-0.7,0.9l-0.6-1c-1.8-3.4-5-5.1-9.4-5.1c-4.6,0-7.7,2.6-9.2,4.1l-0.9,1l-0.4-1.3c-0.5-1.9-2.2-3-4.9-3
	h-4.2l0,34.8h9.5v-15.4c0-1.3,0.2-2.7,0.5-4.1c0.9-3.7,3.4-7.7,7.6-7.3c2.6,0.2,3.8,2.2,3.8,6.1v20.6h9.6v-15.4
	c0-1.7,0.2-2.9,0.5-4.2c0.8-3.5,3.4-7.2,7.4-7.2c2.9,0,4,1.7,4,6.1v15.5c0,3.5,1.6,5.1,5.1,5.1h4.5l0-22.2
	C390.6,137.5,386.7,133,379,133z M292.5,156.5L292.5,156.5c0,0-4.1,4.3-9.5,4.3c-4.9,0-9.9-3-9.9-9.7c0-5.8,3.8-9.9,9.3-9.9
	c1.8,0,3.8,0.6,4.1,1.7l0,0.2c0.7,2.4,3,2.6,3.4,2.6l5.2,0v-4.6c0-6-7.6-8.2-12.8-8.2c-11,0-19,7.7-19,18.2
	c0,10.5,7.9,18.2,18.8,18.2c9.4,0,14.6-6.2,14.6-6.3l0.3-0.3l-4.1-6.8L292.5,156.5z"/>
</svg>
