<?xml version="1.0" encoding="utf-8"?>
<!-- Generator: Adobe Illustrator 23.0.3, SVG Export Plug-In . SVG Version: 6.00 Build 0)  -->
<svg version="1.1" id="logosvg.com" xmlns="http://www.w3.org/2000/svg" xmlns:xlink="http://www.w3.org/1999/xlink" x="0px"
	 y="0px" viewBox="0 0 400 300" style="enable-background:new 0 0 400 300;" xml:space="preserve">
<style type="text/css">
	.st0{fill:#304CB2;}
	.st1{fill:#CCCCCC;}
	.st2{fill:url(#blue_1_);}
	.st3{fill:url(#red_1_);}
	.st4{fill:url(#yellow_1_);}
</style>
<path id="text" class="st0" d="M116,156.1c-1.6,0.4-3.5,0.5-5.4,0.5c-5.6,0-6.8-1.9-6.8-5.6v-21.2H93.1v22.5
	c0,10,5.6,14.6,16.9,14.6c5.4,0,10.5-1.1,16.7-2.5v-34.6H116V156.1z M150.2,157.1c-3.9,0-4.4-1.8-4.4-4.7v-13.7h8.8v-9h-8.8v-10.5
	h-10.5v10.5H130v8.8h5.3v14.4c0,6.3,1.2,13.7,11.8,13.7c3.2,0,5.8-0.7,8.8-1.6l-1.1-8.8C153.2,156.8,151.8,157.1,150.2,157.1z
	 M39.4,137.3c-1.9-0.7-4.2-1.4-6.5-2.1c-6.1-1.8-8.1-2.6-8.1-5.4c0-3.2,2.3-4.7,7.9-4.7c4.6,0,8.6,1.2,12.6,2.6l2.3-10.2
	c-4.7-1.8-9.1-3.3-14.6-3.3c-12.6,0-19.7,7.2-19.7,15.8c0,6.5,2.8,10.7,9.1,13.3c1.8,0.7,4,1.4,6.3,2.1c6.8,2.1,9,3.2,9,5.8
	c0,3.2-2.6,4.9-8.1,4.9c-4.9,0-9.5-1.4-14.2-3.5l-2.5,10.5c5.3,2.1,10.4,3.5,16.7,3.5c13,0,19.7-7.2,19.7-16
	C49.4,143.6,45.4,139.6,39.4,137.3z M177.8,128c-3.5,0-6.8,0.9-9.1,1.6v-17.4h-10.5v54.4h10.5v-27.2c1.9-0.7,4-1.4,6.7-1.4
	c4,0,5.6,1.6,5.6,5.4v23.2h10.5v-24.4C191.5,132.5,187.1,128,177.8,128z M71,127.8c-10.7,0-19.3,7.6-19.3,19.3s8.6,19.7,19.3,19.7
	s19.3-7.7,19.3-19.7S81.7,127.8,71,127.8z M71,156.2c-4.6,0-8.3-3.3-8.3-9.3s3.5-9.1,8.3-9.1s8.3,3.2,8.3,9.1
	C79.3,153.1,75.6,156.2,71,156.2z M307.5,144.1c-1.6-0.5-3.2-1.1-5.1-1.6c-3.7-1.1-5.1-1.6-5.1-3.2c0-1.6,1.4-2.6,4.7-2.6
	c3.5,0,6.7,0.7,10.2,1.8l1.8-9.1c-3.9-0.9-7.6-1.6-11.8-1.6c-10,0-15.5,5.1-15.5,12.1c0,4.9,2.5,8.1,7.4,10.2c1.4,0.5,3,1.2,4.9,1.8
	c3.9,1.1,5.8,1.6,5.8,3.3c0,1.8-2.3,2.5-5.4,2.5c-3.9,0-7.4-0.7-11.1-2.1l-1.6,9.1c4.6,1.2,8.8,2.1,13.5,2.1
	c10.5,0,15.3-5.4,15.3-12.3C315.4,149.8,313.5,146.2,307.5,144.1z M268,127.8c-11.1,0-19,7.7-19,20c0,11.4,6.8,19,19.1,19
	c5.4,0,9.8-1.6,14.4-3.5l-1.6-8.8c-3.5,1.6-7,2.8-11.2,2.8c-6.3,0-9-2.6-9.3-6.5h23.7c0,0,0.4-4.2,0.4-5.1
	C284.5,135.7,279.1,127.8,268,127.8z M260.6,143.8c0.7-3.2,2.3-7.2,6.8-7.2s6,4.6,6,7.2H260.6z M336.3,157.1c-3.9,0-4.4-1.8-4.4-4.7
	v-13.7h8.8v-9h-8.8v-10.5h-10.5v10.5H316v9h5.4v14.4c0,6.3,1.6,13.7,12.1,13.7c3.2,0,5.8-0.7,8.8-1.6l-1.2-8.8
	C339.3,156.8,337.9,157.1,336.3,157.1z M343.4,114.3c-2.6,0-4.6,2.1-4.7,4.7c-0.2,2.6,2.1,4.7,4.6,4.7c2.6,0,4.7-2.1,4.7-4.7
	C347.9,116.4,346,114.3,343.4,114.3z M343.4,122.9c-2.1,0-3.7-1.6-3.7-3.9s1.6-3.9,3.9-3.9c2.1,0,3.9,1.6,3.7,3.9
	C347,121.3,345.5,122.9,343.4,122.9z M343.9,119.2c0.9-0.2,1.4-0.5,1.4-1.4s-0.7-1.6-1.8-1.6h-1.8v5.4h1.1v-2.3
	c0.4,0,0.5,0.2,0.7,0.5l1.2,1.8h1.2l-1.1-1.8C344.2,119.5,344.1,119.4,343.9,119.2z M343.2,118.7h-0.5v-1.6h0.7
	c0.7,0,0.9,0.4,0.9,0.7C344.2,118.5,343.7,118.7,343.2,118.7z M239.2,129.7l-6.7,20.2l-6.7-20.2h-9.1l-6.8,20.2l-6.7-20.2h-11.4
	l13.2,36.9h9.7l6.7-20l6.7,20h9.7l13.2-36.9H239.2z"/>
<g id="logo">
	<path id="grey" class="st1" d="M375.8,127.6c-3.5,0-6.5,1.2-8.8,2.5c-2.3-1.2-5.1-2.5-8.8-2.5c-7.2,0-11.8,4.6-11.8,12.6
		c0,9.7,9.3,19.1,20.5,26.9c11.2-7.6,20.5-17,20.5-26.9C387.6,132.2,382.9,127.6,375.8,127.6z"/>
	
		<linearGradient id="blue_1_" gradientUnits="userSpaceOnUse" x1="347.647" y1="-606.7715" x2="374.7894" y2="-606.7715" gradientTransform="matrix(1 0 0 -1 0 -455)">
		<stop  offset="0" style="stop-color:#3656CC"/>
		<stop  offset="0.35" style="stop-color:#304CB2"/>
		<stop  offset="0.72" style="stop-color:#283B80"/>
	</linearGradient>
	<path id="blue" class="st2" d="M347.6,140.4c0,9.8,10.5,19.1,19.3,25.3c2.6-1.8,5.3-3.9,7.7-6c-11.8-9.8-23-18.8-26.9-21.9
		C347.7,138.5,347.6,139.4,347.6,140.4z"/>
	
		<linearGradient id="red_1_" gradientUnits="userSpaceOnUse" x1="351.5129" y1="-585.1926" x2="382.1753" y2="-606.6628" gradientTransform="matrix(1 0 0 -1 0 -455)">
		<stop  offset="0.3" style="stop-color:#E61C23"/>
		<stop  offset="0.8" style="stop-color:#C3161C"/>
	</linearGradient>
	<path id="red" class="st3" d="M385.7,145c-8.6-7-13.7-10.7-19.3-14c-1.6-0.9-4.6-2.3-7.9-2.3c-3.2,0-6,1.1-7.9,3
		c-1.2,1.2-2.1,2.8-2.5,4.7c4.4,3.2,16.5,11.8,28.6,21.4C380.8,154,384.1,149.6,385.7,145z"/>
	
		<linearGradient id="yellow_1_" gradientUnits="userSpaceOnUse" x1="370.4673" y1="-582.4949" x2="387.9986" y2="-594.7704" gradientTransform="matrix(1 0 0 -1 0 -455)">
		<stop  offset="0" style="stop-color:#FDBC11"/>
		<stop  offset="0.25" style="stop-color:#FCB415"/>
		<stop  offset="0.8" style="stop-color:#F89E1C"/>
	</linearGradient>
	<path id="yellow" class="st4" d="M383.4,131.7c-1.9-1.9-4.6-3-7.7-3c-3.3,0-5.8,1.1-7.7,2.1c3.3,1.9,10.5,6,18.1,11.6
		c0.2-0.7,0.2-1.6,0.2-2.3C386.4,136.6,385.3,133.6,383.4,131.7z"/>
</g>
</svg>
