<?xml version="1.0" encoding="utf-8"?>
<!-- Generator: Adobe Illustrator 23.0.3, SVG Export Plug-In . SVG Version: 6.00 Build 0)  -->
<svg version="1.1"
	 id="logosvg.com" inkscape:version="0.92.2 (5c3e80d, 2017-08-06)" sodipodi:docname="Kayak.svg" xmlns:cc="http://creativecommons.org/ns#" xmlns:dc="http://purl.org/dc/elements/1.1/" xmlns:inkscape="http://www.inkscape.org/namespaces/inkscape" xmlns:rdf="http://www.w3.org/1999/02/22-rdf-syntax-ns#" xmlns:sodipodi="http://sodipodi.sourceforge.net/DTD/sodipodi-0.dtd" xmlns:svg="http://www.w3.org/2000/svg"
	 xmlns="http://www.w3.org/2000/svg" xmlns:xlink="http://www.w3.org/1999/xlink" x="0px" y="0px" viewBox="0 0 400 300"
	 style="enable-background:new 0 0 400 300;" xml:space="preserve">
<style type="text/css">
	.st0{fill:#FF690F;}
</style>
<path id="logosvg.com_1_" class="st0" d="M1.6,188h76v-76h-76V188z M25,131h9.2v17.6L44,131h10.2l-10.6,19l10.6,19H44l-9.7-17.6V169
	H25V131z M81.8,188h76v-76h-76V188z M113.9,131h11.7l12.4,38.1H128l-1.7-5.5l-13.5-0.1l-1.7,5.5h-9.8L113.9,131z M124.1,156.1h-8.9
	l4.4-14.2L124.1,156.1z M162,188h76v-76h-76V188z M194,131l6.2,11.7l6.1-11.7H217l-12.3,21.3V169h-9.3v-16.8L183,131H194z
	 M242.2,188h76v-76h-76V188z M274.3,131h11.7l12.4,38.1h-10.1l-1.7-5.5l-13.5-0.1l-1.7,5.5h-9.8L274.3,131z M284.5,156.1h-8.9
	l4.4-14.2L284.5,156.1z M322.4,112v76h76v-76H322.4z M375,169h-10.2l-9.7-17.6V169h-9.2v-38h9.2v17.6l9.7-17.6H375l-10.6,19L375,169
	z"/>
</svg>
